%TF.GenerationSoftware,KiCad,Pcbnew,(5.1.8)-1*%
%TF.CreationDate,2021-01-17T17:02:30+01:00*%
%TF.ProjectId,feikController pedal,6665696b-436f-46e7-9472-6f6c6c657220,rev?*%
%TF.SameCoordinates,Original*%
%TF.FileFunction,Soldermask,Top*%
%TF.FilePolarity,Negative*%
%FSLAX46Y46*%
G04 Gerber Fmt 4.6, Leading zero omitted, Abs format (unit mm)*
G04 Created by KiCad (PCBNEW (5.1.8)-1) date 2021-01-17 17:02:30*
%MOMM*%
%LPD*%
G01*
G04 APERTURE LIST*
%ADD10C,1.500000*%
%ADD11R,1.500000X1.500000*%
G04 APERTURE END LIST*
%TO.C,C3*%
G36*
G01*
X179329500Y-106028500D02*
X179329500Y-105553500D01*
G75*
G02*
X179567000Y-105316000I237500J0D01*
G01*
X180142000Y-105316000D01*
G75*
G02*
X180379500Y-105553500I0J-237500D01*
G01*
X180379500Y-106028500D01*
G75*
G02*
X180142000Y-106266000I-237500J0D01*
G01*
X179567000Y-106266000D01*
G75*
G02*
X179329500Y-106028500I0J237500D01*
G01*
G37*
G36*
G01*
X177579500Y-106028500D02*
X177579500Y-105553500D01*
G75*
G02*
X177817000Y-105316000I237500J0D01*
G01*
X178392000Y-105316000D01*
G75*
G02*
X178629500Y-105553500I0J-237500D01*
G01*
X178629500Y-106028500D01*
G75*
G02*
X178392000Y-106266000I-237500J0D01*
G01*
X177817000Y-106266000D01*
G75*
G02*
X177579500Y-106028500I0J237500D01*
G01*
G37*
%TD*%
%TO.C,C1*%
G36*
G01*
X179754500Y-106416000D02*
X179754500Y-105166000D01*
G75*
G02*
X180004500Y-104916000I250000J0D01*
G01*
X180929500Y-104916000D01*
G75*
G02*
X181179500Y-105166000I0J-250000D01*
G01*
X181179500Y-106416000D01*
G75*
G02*
X180929500Y-106666000I-250000J0D01*
G01*
X180004500Y-106666000D01*
G75*
G02*
X179754500Y-106416000I0J250000D01*
G01*
G37*
G36*
G01*
X176779500Y-106416000D02*
X176779500Y-105166000D01*
G75*
G02*
X177029500Y-104916000I250000J0D01*
G01*
X177954500Y-104916000D01*
G75*
G02*
X178204500Y-105166000I0J-250000D01*
G01*
X178204500Y-106416000D01*
G75*
G02*
X177954500Y-106666000I-250000J0D01*
G01*
X177029500Y-106666000D01*
G75*
G02*
X176779500Y-106416000I0J250000D01*
G01*
G37*
%TD*%
%TO.C,C2*%
G36*
G01*
X179434800Y-106241001D02*
X179434800Y-105340999D01*
G75*
G02*
X179684799Y-105091000I249999J0D01*
G01*
X180334801Y-105091000D01*
G75*
G02*
X180584800Y-105340999I0J-249999D01*
G01*
X180584800Y-106241001D01*
G75*
G02*
X180334801Y-106491000I-249999J0D01*
G01*
X179684799Y-106491000D01*
G75*
G02*
X179434800Y-106241001I0J249999D01*
G01*
G37*
G36*
G01*
X177384800Y-106241001D02*
X177384800Y-105340999D01*
G75*
G02*
X177634799Y-105091000I249999J0D01*
G01*
X178284801Y-105091000D01*
G75*
G02*
X178534800Y-105340999I0J-249999D01*
G01*
X178534800Y-106241001D01*
G75*
G02*
X178284801Y-106491000I-249999J0D01*
G01*
X177634799Y-106491000D01*
G75*
G02*
X177384800Y-106241001I0J249999D01*
G01*
G37*
%TD*%
%TO.C,U1*%
G36*
G01*
X172955400Y-105972800D02*
X172955400Y-105672800D01*
G75*
G02*
X173105400Y-105522800I150000J0D01*
G01*
X174755400Y-105522800D01*
G75*
G02*
X174905400Y-105672800I0J-150000D01*
G01*
X174905400Y-105972800D01*
G75*
G02*
X174755400Y-106122800I-150000J0D01*
G01*
X173105400Y-106122800D01*
G75*
G02*
X172955400Y-105972800I0J150000D01*
G01*
G37*
G36*
G01*
X172955400Y-107242800D02*
X172955400Y-106942800D01*
G75*
G02*
X173105400Y-106792800I150000J0D01*
G01*
X174755400Y-106792800D01*
G75*
G02*
X174905400Y-106942800I0J-150000D01*
G01*
X174905400Y-107242800D01*
G75*
G02*
X174755400Y-107392800I-150000J0D01*
G01*
X173105400Y-107392800D01*
G75*
G02*
X172955400Y-107242800I0J150000D01*
G01*
G37*
G36*
G01*
X172955400Y-108512800D02*
X172955400Y-108212800D01*
G75*
G02*
X173105400Y-108062800I150000J0D01*
G01*
X174755400Y-108062800D01*
G75*
G02*
X174905400Y-108212800I0J-150000D01*
G01*
X174905400Y-108512800D01*
G75*
G02*
X174755400Y-108662800I-150000J0D01*
G01*
X173105400Y-108662800D01*
G75*
G02*
X172955400Y-108512800I0J150000D01*
G01*
G37*
G36*
G01*
X172955400Y-109782800D02*
X172955400Y-109482800D01*
G75*
G02*
X173105400Y-109332800I150000J0D01*
G01*
X174755400Y-109332800D01*
G75*
G02*
X174905400Y-109482800I0J-150000D01*
G01*
X174905400Y-109782800D01*
G75*
G02*
X174755400Y-109932800I-150000J0D01*
G01*
X173105400Y-109932800D01*
G75*
G02*
X172955400Y-109782800I0J150000D01*
G01*
G37*
G36*
G01*
X172955400Y-111052800D02*
X172955400Y-110752800D01*
G75*
G02*
X173105400Y-110602800I150000J0D01*
G01*
X174755400Y-110602800D01*
G75*
G02*
X174905400Y-110752800I0J-150000D01*
G01*
X174905400Y-111052800D01*
G75*
G02*
X174755400Y-111202800I-150000J0D01*
G01*
X173105400Y-111202800D01*
G75*
G02*
X172955400Y-111052800I0J150000D01*
G01*
G37*
G36*
G01*
X172955400Y-112322800D02*
X172955400Y-112022800D01*
G75*
G02*
X173105400Y-111872800I150000J0D01*
G01*
X174755400Y-111872800D01*
G75*
G02*
X174905400Y-112022800I0J-150000D01*
G01*
X174905400Y-112322800D01*
G75*
G02*
X174755400Y-112472800I-150000J0D01*
G01*
X173105400Y-112472800D01*
G75*
G02*
X172955400Y-112322800I0J150000D01*
G01*
G37*
G36*
G01*
X172955400Y-113592800D02*
X172955400Y-113292800D01*
G75*
G02*
X173105400Y-113142800I150000J0D01*
G01*
X174755400Y-113142800D01*
G75*
G02*
X174905400Y-113292800I0J-150000D01*
G01*
X174905400Y-113592800D01*
G75*
G02*
X174755400Y-113742800I-150000J0D01*
G01*
X173105400Y-113742800D01*
G75*
G02*
X172955400Y-113592800I0J150000D01*
G01*
G37*
G36*
G01*
X168005400Y-113592800D02*
X168005400Y-113292800D01*
G75*
G02*
X168155400Y-113142800I150000J0D01*
G01*
X169805400Y-113142800D01*
G75*
G02*
X169955400Y-113292800I0J-150000D01*
G01*
X169955400Y-113592800D01*
G75*
G02*
X169805400Y-113742800I-150000J0D01*
G01*
X168155400Y-113742800D01*
G75*
G02*
X168005400Y-113592800I0J150000D01*
G01*
G37*
G36*
G01*
X168005400Y-112322800D02*
X168005400Y-112022800D01*
G75*
G02*
X168155400Y-111872800I150000J0D01*
G01*
X169805400Y-111872800D01*
G75*
G02*
X169955400Y-112022800I0J-150000D01*
G01*
X169955400Y-112322800D01*
G75*
G02*
X169805400Y-112472800I-150000J0D01*
G01*
X168155400Y-112472800D01*
G75*
G02*
X168005400Y-112322800I0J150000D01*
G01*
G37*
G36*
G01*
X168005400Y-111052800D02*
X168005400Y-110752800D01*
G75*
G02*
X168155400Y-110602800I150000J0D01*
G01*
X169805400Y-110602800D01*
G75*
G02*
X169955400Y-110752800I0J-150000D01*
G01*
X169955400Y-111052800D01*
G75*
G02*
X169805400Y-111202800I-150000J0D01*
G01*
X168155400Y-111202800D01*
G75*
G02*
X168005400Y-111052800I0J150000D01*
G01*
G37*
G36*
G01*
X168005400Y-109782800D02*
X168005400Y-109482800D01*
G75*
G02*
X168155400Y-109332800I150000J0D01*
G01*
X169805400Y-109332800D01*
G75*
G02*
X169955400Y-109482800I0J-150000D01*
G01*
X169955400Y-109782800D01*
G75*
G02*
X169805400Y-109932800I-150000J0D01*
G01*
X168155400Y-109932800D01*
G75*
G02*
X168005400Y-109782800I0J150000D01*
G01*
G37*
G36*
G01*
X168005400Y-108512800D02*
X168005400Y-108212800D01*
G75*
G02*
X168155400Y-108062800I150000J0D01*
G01*
X169805400Y-108062800D01*
G75*
G02*
X169955400Y-108212800I0J-150000D01*
G01*
X169955400Y-108512800D01*
G75*
G02*
X169805400Y-108662800I-150000J0D01*
G01*
X168155400Y-108662800D01*
G75*
G02*
X168005400Y-108512800I0J150000D01*
G01*
G37*
G36*
G01*
X168005400Y-107242800D02*
X168005400Y-106942800D01*
G75*
G02*
X168155400Y-106792800I150000J0D01*
G01*
X169805400Y-106792800D01*
G75*
G02*
X169955400Y-106942800I0J-150000D01*
G01*
X169955400Y-107242800D01*
G75*
G02*
X169805400Y-107392800I-150000J0D01*
G01*
X168155400Y-107392800D01*
G75*
G02*
X168005400Y-107242800I0J150000D01*
G01*
G37*
G36*
G01*
X168005400Y-105972800D02*
X168005400Y-105672800D01*
G75*
G02*
X168155400Y-105522800I150000J0D01*
G01*
X169805400Y-105522800D01*
G75*
G02*
X169955400Y-105672800I0J-150000D01*
G01*
X169955400Y-105972800D01*
G75*
G02*
X169805400Y-106122800I-150000J0D01*
G01*
X168155400Y-106122800D01*
G75*
G02*
X168005400Y-105972800I0J150000D01*
G01*
G37*
%TD*%
D10*
%TO.C,GND*%
X172085000Y-103454200D03*
%TD*%
%TO.C,SW*%
X169494200Y-103454200D03*
%TD*%
D11*
%TO.C,3.5V*%
X177495200Y-103276400D03*
%TD*%
D10*
%TO.C,GND*%
X180441600Y-103276400D03*
%TD*%
%TO.C,ACK*%
X179400200Y-108331000D03*
%TD*%
%TO.C,CS*%
X181432200Y-109499400D03*
%TD*%
%TO.C,CMD*%
X179400200Y-113004600D03*
%TD*%
%TO.C,DATA*%
X181432200Y-111836200D03*
%TD*%
%TO.C,CLK*%
X179400200Y-110667800D03*
%TD*%
M02*
