%TF.GenerationSoftware,KiCad,Pcbnew,(5.1.8)-1*%
%TF.CreationDate,2020-12-26T04:00:47+01:00*%
%TF.ProjectId,feikController pedal,6665696b-436f-46e7-9472-6f6c6c657220,rev?*%
%TF.SameCoordinates,Original*%
%TF.FileFunction,Copper,L2,Bot*%
%TF.FilePolarity,Positive*%
%FSLAX46Y46*%
G04 Gerber Fmt 4.6, Leading zero omitted, Abs format (unit mm)*
G04 Created by KiCad (PCBNEW (5.1.8)-1) date 2020-12-26 04:00:47*
%MOMM*%
%LPD*%
G01*
G04 APERTURE LIST*
%TA.AperFunction,SMDPad,CuDef*%
%ADD10C,1.000000*%
%TD*%
%TA.AperFunction,SMDPad,CuDef*%
%ADD11R,1.000000X1.000000*%
%TD*%
%TA.AperFunction,ViaPad*%
%ADD12C,0.800000*%
%TD*%
%TA.AperFunction,Conductor*%
%ADD13C,0.250000*%
%TD*%
%TA.AperFunction,Conductor*%
%ADD14C,0.500000*%
%TD*%
G04 APERTURE END LIST*
D10*
%TO.P,ICSPCLK,1*%
%TO.N,/ICSPCLK*%
X181508400Y-113258600D03*
%TD*%
%TO.P,ICSPDAT,1*%
%TO.N,/ICSPDAT*%
X179400200Y-113258600D03*
%TD*%
%TO.P,VSS,1*%
%TO.N,GND*%
X177292000Y-113258600D03*
%TD*%
D11*
%TO.P,VDD,1*%
%TO.N,+3V3*%
X175183800Y-113258600D03*
%TD*%
D10*
%TO.P,VPP/~MCLR,1*%
%TO.N,/VPP\u005C~MCLR*%
X173075600Y-113258600D03*
%TD*%
D12*
%TO.N,GND*%
X172186600Y-105816400D03*
%TO.N,+3V3*%
X170611800Y-105841800D03*
X175031400Y-103276400D03*
%TO.N,/VPP\u005C~MCLR*%
X170586400Y-109626400D03*
%TO.N,/ICSPDAT*%
X172110400Y-107086400D03*
%TO.N,/ICSPCLK*%
X176225200Y-107975400D03*
%TD*%
D13*
%TO.N,GND*%
X177292000Y-113258600D02*
X177209598Y-113258600D01*
X171385399Y-106617601D02*
X172186600Y-105816400D01*
X171385399Y-107434401D02*
X171385399Y-106617601D01*
X177209598Y-113258600D02*
X171385399Y-107434401D01*
%TO.N,+3V3*%
X170611800Y-107340400D02*
X170611800Y-105841800D01*
X175183800Y-113258600D02*
X175183800Y-111912400D01*
X175183800Y-111912400D02*
X170611800Y-107340400D01*
D14*
X170611800Y-105841800D02*
X170611800Y-104190800D01*
X171526200Y-103276400D02*
X175031400Y-103276400D01*
X170611800Y-104190800D02*
X171526200Y-103276400D01*
D13*
%TO.N,/VPP\u005C~MCLR*%
X173075600Y-113258600D02*
X171221400Y-113258600D01*
X171221400Y-113258600D02*
X170586400Y-112623600D01*
X170586400Y-112623600D02*
X170586400Y-109626400D01*
%TO.N,/ICSPDAT*%
X179400200Y-113258600D02*
X173228000Y-107086400D01*
X173228000Y-107086400D02*
X172110400Y-107086400D01*
%TO.N,/ICSPCLK*%
X181508400Y-113258600D02*
X176225200Y-107975400D01*
%TD*%
M02*
