%TF.GenerationSoftware,KiCad,Pcbnew,(5.1.8)-1*%
%TF.CreationDate,2020-12-26T04:00:47+01:00*%
%TF.ProjectId,feikController pedal,6665696b-436f-46e7-9472-6f6c6c657220,rev?*%
%TF.SameCoordinates,Original*%
%TF.FileFunction,Legend,Top*%
%TF.FilePolarity,Positive*%
%FSLAX46Y46*%
G04 Gerber Fmt 4.6, Leading zero omitted, Abs format (unit mm)*
G04 Created by KiCad (PCBNEW (5.1.8)-1) date 2020-12-26 04:00:47*
%MOMM*%
%LPD*%
G01*
G04 APERTURE LIST*
%ADD10C,0.120000*%
%ADD11C,0.150000*%
G04 APERTURE END LIST*
D10*
X178308000Y-111836200D02*
X180416200Y-111836200D01*
X178308000Y-109499400D02*
X180441600Y-109499400D01*
D11*
X171039285Y-113065285D02*
X171575000Y-113065285D01*
X171682142Y-113101000D01*
X171753571Y-113172428D01*
X171789285Y-113279571D01*
X171789285Y-113351000D01*
X171789285Y-112351000D02*
X171789285Y-112708142D01*
X171039285Y-112708142D01*
X171717857Y-111672428D02*
X171753571Y-111708142D01*
X171789285Y-111815285D01*
X171789285Y-111886714D01*
X171753571Y-111993857D01*
X171682142Y-112065285D01*
X171610714Y-112101000D01*
X171467857Y-112136714D01*
X171360714Y-112136714D01*
X171217857Y-112101000D01*
X171146428Y-112065285D01*
X171075000Y-111993857D01*
X171039285Y-111886714D01*
X171039285Y-111815285D01*
X171075000Y-111708142D01*
X171110714Y-111672428D01*
X171039285Y-111136714D02*
X171575000Y-111136714D01*
X171682142Y-111172428D01*
X171753571Y-111243857D01*
X171789285Y-111351000D01*
X171789285Y-111422428D01*
X171789285Y-110422428D02*
X171789285Y-110779571D01*
X171039285Y-110779571D01*
X171717857Y-109743857D02*
X171753571Y-109779571D01*
X171789285Y-109886714D01*
X171789285Y-109958142D01*
X171753571Y-110065285D01*
X171682142Y-110136714D01*
X171610714Y-110172428D01*
X171467857Y-110208142D01*
X171360714Y-110208142D01*
X171217857Y-110172428D01*
X171146428Y-110136714D01*
X171075000Y-110065285D01*
X171039285Y-109958142D01*
X171039285Y-109886714D01*
X171075000Y-109779571D01*
X171110714Y-109743857D01*
X171039285Y-109208142D02*
X171575000Y-109208142D01*
X171682142Y-109243857D01*
X171753571Y-109315285D01*
X171789285Y-109422428D01*
X171789285Y-109493857D01*
X171789285Y-108493857D02*
X171789285Y-108851000D01*
X171039285Y-108851000D01*
X171717857Y-107815285D02*
X171753571Y-107851000D01*
X171789285Y-107958142D01*
X171789285Y-108029571D01*
X171753571Y-108136714D01*
X171682142Y-108208142D01*
X171610714Y-108243857D01*
X171467857Y-108279571D01*
X171360714Y-108279571D01*
X171217857Y-108243857D01*
X171146428Y-108208142D01*
X171075000Y-108136714D01*
X171039285Y-108029571D01*
X171039285Y-107958142D01*
X171075000Y-107851000D01*
X171110714Y-107815285D01*
X171039285Y-107279571D02*
X171575000Y-107279571D01*
X171682142Y-107315285D01*
X171753571Y-107386714D01*
X171789285Y-107493857D01*
X171789285Y-107565285D01*
X171789285Y-106565285D02*
X171789285Y-106922428D01*
X171039285Y-106922428D01*
X171717857Y-105886714D02*
X171753571Y-105922428D01*
X171789285Y-106029571D01*
X171789285Y-106101000D01*
X171753571Y-106208142D01*
X171682142Y-106279571D01*
X171610714Y-106315285D01*
X171467857Y-106351000D01*
X171360714Y-106351000D01*
X171217857Y-106315285D01*
X171146428Y-106279571D01*
X171075000Y-106208142D01*
X171039285Y-106101000D01*
X171039285Y-106029571D01*
X171075000Y-105922428D01*
X171110714Y-105886714D01*
D10*
%TO.C,C3*%
X178808233Y-106301000D02*
X179150767Y-106301000D01*
X178808233Y-105281000D02*
X179150767Y-105281000D01*
%TO.C,C1*%
X178377436Y-106701000D02*
X179581564Y-106701000D01*
X178377436Y-104881000D02*
X179581564Y-104881000D01*
%TO.C,C2*%
X178723548Y-106501000D02*
X179246052Y-106501000D01*
X178723548Y-105081000D02*
X179246052Y-105081000D01*
%TO.C,U1*%
X171455400Y-105197800D02*
X168005400Y-105197800D01*
X171455400Y-105197800D02*
X173405400Y-105197800D01*
X171455400Y-114067800D02*
X169505400Y-114067800D01*
X171455400Y-114067800D02*
X173405400Y-114067800D01*
%TO.C,GND*%
X173035000Y-103454200D02*
G75*
G03*
X173035000Y-103454200I-950000J0D01*
G01*
%TO.C,SW*%
X170444200Y-103454200D02*
G75*
G03*
X170444200Y-103454200I-950000J0D01*
G01*
%TO.C,3.5V*%
X178445200Y-102326400D02*
X178445200Y-104226400D01*
X176545200Y-102326400D02*
X178445200Y-102326400D01*
X176545200Y-104226400D02*
X176545200Y-102326400D01*
X178445200Y-104226400D02*
X176545200Y-104226400D01*
%TO.C,GND*%
X181391600Y-103276400D02*
G75*
G03*
X181391600Y-103276400I-950000J0D01*
G01*
%TO.C,ACK*%
X180350200Y-108331000D02*
G75*
G03*
X180350200Y-108331000I-950000J0D01*
G01*
%TO.C,CS*%
X182382200Y-109499400D02*
G75*
G03*
X182382200Y-109499400I-950000J0D01*
G01*
%TO.C,CMD*%
X180350200Y-113004600D02*
G75*
G03*
X180350200Y-113004600I-950000J0D01*
G01*
%TO.C,DATA*%
X182382200Y-111836200D02*
G75*
G03*
X182382200Y-111836200I-950000J0D01*
G01*
%TO.C,CLK*%
X180350200Y-110667800D02*
G75*
G03*
X180350200Y-110667800I-950000J0D01*
G01*
%TO.C,GND*%
D11*
X173386400Y-104025628D02*
X173350685Y-104097057D01*
X173350685Y-104204200D01*
X173386400Y-104311342D01*
X173457828Y-104382771D01*
X173529257Y-104418485D01*
X173672114Y-104454200D01*
X173779257Y-104454200D01*
X173922114Y-104418485D01*
X173993542Y-104382771D01*
X174064971Y-104311342D01*
X174100685Y-104204200D01*
X174100685Y-104132771D01*
X174064971Y-104025628D01*
X174029257Y-103989914D01*
X173779257Y-103989914D01*
X173779257Y-104132771D01*
X174100685Y-103668485D02*
X173350685Y-103668485D01*
X174100685Y-103239914D01*
X173350685Y-103239914D01*
X174100685Y-102882771D02*
X173350685Y-102882771D01*
X173350685Y-102704200D01*
X173386400Y-102597057D01*
X173457828Y-102525628D01*
X173529257Y-102489914D01*
X173672114Y-102454200D01*
X173779257Y-102454200D01*
X173922114Y-102489914D01*
X173993542Y-102525628D01*
X174064971Y-102597057D01*
X174100685Y-102704200D01*
X174100685Y-102882771D01*
%TO.C,SW*%
X168248371Y-104097057D02*
X168284085Y-103989914D01*
X168284085Y-103811342D01*
X168248371Y-103739914D01*
X168212657Y-103704200D01*
X168141228Y-103668485D01*
X168069800Y-103668485D01*
X167998371Y-103704200D01*
X167962657Y-103739914D01*
X167926942Y-103811342D01*
X167891228Y-103954200D01*
X167855514Y-104025628D01*
X167819800Y-104061342D01*
X167748371Y-104097057D01*
X167676942Y-104097057D01*
X167605514Y-104061342D01*
X167569800Y-104025628D01*
X167534085Y-103954200D01*
X167534085Y-103775628D01*
X167569800Y-103668485D01*
X167534085Y-103418485D02*
X168284085Y-103239914D01*
X167748371Y-103097057D01*
X168284085Y-102954200D01*
X167534085Y-102775628D01*
%TO.C,3.5V*%
X175433485Y-104307342D02*
X175433485Y-103843057D01*
X175719200Y-104093057D01*
X175719200Y-103985914D01*
X175754914Y-103914485D01*
X175790628Y-103878771D01*
X175862057Y-103843057D01*
X176040628Y-103843057D01*
X176112057Y-103878771D01*
X176147771Y-103914485D01*
X176183485Y-103985914D01*
X176183485Y-104200200D01*
X176147771Y-104271628D01*
X176112057Y-104307342D01*
X176112057Y-103521628D02*
X176147771Y-103485914D01*
X176183485Y-103521628D01*
X176147771Y-103557342D01*
X176112057Y-103521628D01*
X176183485Y-103521628D01*
X175433485Y-102807342D02*
X175433485Y-103164485D01*
X175790628Y-103200200D01*
X175754914Y-103164485D01*
X175719200Y-103093057D01*
X175719200Y-102914485D01*
X175754914Y-102843057D01*
X175790628Y-102807342D01*
X175862057Y-102771628D01*
X176040628Y-102771628D01*
X176112057Y-102807342D01*
X176147771Y-102843057D01*
X176183485Y-102914485D01*
X176183485Y-103093057D01*
X176147771Y-103164485D01*
X176112057Y-103200200D01*
X175433485Y-102557342D02*
X176183485Y-102307342D01*
X175433485Y-102057342D01*
%TO.C,GND*%
X181793800Y-103847828D02*
X181758085Y-103919257D01*
X181758085Y-104026400D01*
X181793800Y-104133542D01*
X181865228Y-104204971D01*
X181936657Y-104240685D01*
X182079514Y-104276400D01*
X182186657Y-104276400D01*
X182329514Y-104240685D01*
X182400942Y-104204971D01*
X182472371Y-104133542D01*
X182508085Y-104026400D01*
X182508085Y-103954971D01*
X182472371Y-103847828D01*
X182436657Y-103812114D01*
X182186657Y-103812114D01*
X182186657Y-103954971D01*
X182508085Y-103490685D02*
X181758085Y-103490685D01*
X182508085Y-103062114D01*
X181758085Y-103062114D01*
X182508085Y-102704971D02*
X181758085Y-102704971D01*
X181758085Y-102526400D01*
X181793800Y-102419257D01*
X181865228Y-102347828D01*
X181936657Y-102312114D01*
X182079514Y-102276400D01*
X182186657Y-102276400D01*
X182329514Y-102312114D01*
X182400942Y-102347828D01*
X182472371Y-102419257D01*
X182508085Y-102526400D01*
X182508085Y-102704971D01*
%TO.C,ACK*%
X176134828Y-108456000D02*
X176491971Y-108456000D01*
X176063400Y-108670285D02*
X176313400Y-107920285D01*
X176563400Y-108670285D01*
X177241971Y-108598857D02*
X177206257Y-108634571D01*
X177099114Y-108670285D01*
X177027685Y-108670285D01*
X176920542Y-108634571D01*
X176849114Y-108563142D01*
X176813400Y-108491714D01*
X176777685Y-108348857D01*
X176777685Y-108241714D01*
X176813400Y-108098857D01*
X176849114Y-108027428D01*
X176920542Y-107956000D01*
X177027685Y-107920285D01*
X177099114Y-107920285D01*
X177206257Y-107956000D01*
X177241971Y-107991714D01*
X177563400Y-108670285D02*
X177563400Y-107920285D01*
X177991971Y-108670285D02*
X177670542Y-108241714D01*
X177991971Y-107920285D02*
X177563400Y-108348857D01*
%TO.C,CS*%
X177243200Y-109767257D02*
X177207485Y-109802971D01*
X177100342Y-109838685D01*
X177028914Y-109838685D01*
X176921771Y-109802971D01*
X176850342Y-109731542D01*
X176814628Y-109660114D01*
X176778914Y-109517257D01*
X176778914Y-109410114D01*
X176814628Y-109267257D01*
X176850342Y-109195828D01*
X176921771Y-109124400D01*
X177028914Y-109088685D01*
X177100342Y-109088685D01*
X177207485Y-109124400D01*
X177243200Y-109160114D01*
X177528914Y-109802971D02*
X177636057Y-109838685D01*
X177814628Y-109838685D01*
X177886057Y-109802971D01*
X177921771Y-109767257D01*
X177957485Y-109695828D01*
X177957485Y-109624400D01*
X177921771Y-109552971D01*
X177886057Y-109517257D01*
X177814628Y-109481542D01*
X177671771Y-109445828D01*
X177600342Y-109410114D01*
X177564628Y-109374400D01*
X177528914Y-109302971D01*
X177528914Y-109231542D01*
X177564628Y-109160114D01*
X177600342Y-109124400D01*
X177671771Y-109088685D01*
X177850342Y-109088685D01*
X177957485Y-109124400D01*
%TO.C,CMD*%
X176390371Y-113272457D02*
X176354657Y-113308171D01*
X176247514Y-113343885D01*
X176176085Y-113343885D01*
X176068942Y-113308171D01*
X175997514Y-113236742D01*
X175961800Y-113165314D01*
X175926085Y-113022457D01*
X175926085Y-112915314D01*
X175961800Y-112772457D01*
X175997514Y-112701028D01*
X176068942Y-112629600D01*
X176176085Y-112593885D01*
X176247514Y-112593885D01*
X176354657Y-112629600D01*
X176390371Y-112665314D01*
X176711800Y-113343885D02*
X176711800Y-112593885D01*
X176961800Y-113129600D01*
X177211800Y-112593885D01*
X177211800Y-113343885D01*
X177568942Y-113343885D02*
X177568942Y-112593885D01*
X177747514Y-112593885D01*
X177854657Y-112629600D01*
X177926085Y-112701028D01*
X177961800Y-112772457D01*
X177997514Y-112915314D01*
X177997514Y-113022457D01*
X177961800Y-113165314D01*
X177926085Y-113236742D01*
X177854657Y-113308171D01*
X177747514Y-113343885D01*
X177568942Y-113343885D01*
%TO.C,DATA*%
X175633600Y-112175485D02*
X175633600Y-111425485D01*
X175812171Y-111425485D01*
X175919314Y-111461200D01*
X175990742Y-111532628D01*
X176026457Y-111604057D01*
X176062171Y-111746914D01*
X176062171Y-111854057D01*
X176026457Y-111996914D01*
X175990742Y-112068342D01*
X175919314Y-112139771D01*
X175812171Y-112175485D01*
X175633600Y-112175485D01*
X176347885Y-111961200D02*
X176705028Y-111961200D01*
X176276457Y-112175485D02*
X176526457Y-111425485D01*
X176776457Y-112175485D01*
X176919314Y-111425485D02*
X177347885Y-111425485D01*
X177133600Y-112175485D02*
X177133600Y-111425485D01*
X177562171Y-111961200D02*
X177919314Y-111961200D01*
X177490742Y-112175485D02*
X177740742Y-111425485D01*
X177990742Y-112175485D01*
%TO.C,CLK*%
X176566171Y-110935657D02*
X176530457Y-110971371D01*
X176423314Y-111007085D01*
X176351885Y-111007085D01*
X176244742Y-110971371D01*
X176173314Y-110899942D01*
X176137600Y-110828514D01*
X176101885Y-110685657D01*
X176101885Y-110578514D01*
X176137600Y-110435657D01*
X176173314Y-110364228D01*
X176244742Y-110292800D01*
X176351885Y-110257085D01*
X176423314Y-110257085D01*
X176530457Y-110292800D01*
X176566171Y-110328514D01*
X177244742Y-111007085D02*
X176887600Y-111007085D01*
X176887600Y-110257085D01*
X177494742Y-111007085D02*
X177494742Y-110257085D01*
X177923314Y-111007085D02*
X177601885Y-110578514D01*
X177923314Y-110257085D02*
X177494742Y-110685657D01*
%TD*%
M02*
